<svg class="main-svg" xmlns="http://www.w3.org/2000/svg" xmlns:xlink="http://www.w3.org/1999/xlink" width="2400" height="1800" style="" viewBox="0 0 800 600"><rect x="0" y="0" width="800" height="600" style="fill: rgb(255, 255, 255); fill-opacity: 1;"/><defs id="defs-457e82"><g class="clips"><clipPath id="clip457e82xyplot" class="plotclip"><rect width="680" height="440"/></clipPath><clipPath id="clip457e82x2yplot" class="plotclip"><rect width="680" height="440"/></clipPath><clipPath class="axesclip" id="clip457e82x"><rect x="80" y="0" width="680" height="600"/></clipPath><clipPath class="axesclip" id="clip457e82y"><rect x="0" y="90" width="800" height="440"/></clipPath><clipPath class="axesclip" id="clip457e82xy"><rect x="80" y="90" width="680" height="440"/></clipPath><clipPath class="axesclip" id="clip457e82x2"><rect x="80" y="0" width="680" height="600"/></clipPath><clipPath class="axesclip" id="clip457e82x2y"><rect x="80" y="90" width="680" height="440"/></clipPath></g><g class="gradients"/><g class="patterns"/></defs><g class="bglayer"/><g class="layer-below"><g class="imagelayer"/><g class="shapelayer"/></g><g class="cartesianlayer"><g class="subplot xy"><g class="layer-subplot"><g class="shapelayer"/><g class="imagelayer"/></g><g class="minor-gridlayer"><g class="x"/><g class="y"/><g class="x2"/></g><g class="gridlayer"><g class="x"><path class="xgrid crisp" transform="translate(328.93,0)" d="M0,90v440" style="stroke: rgb(211, 211, 211); stroke-opacity: 1; stroke-width: 0.7px;"/><path class="xgrid crisp" transform="translate(472.49,0)" d="M0,90v440" style="stroke: rgb(211, 211, 211); stroke-opacity: 1; stroke-width: 0.7px;"/></g><g class="y"><path class="ygrid crisp" transform="translate(0,520.3299999999999)" d="M80,0h680" style="stroke: rgb(211, 211, 211); stroke-opacity: 1; stroke-width: 0.7px;"/><path class="ygrid crisp" transform="translate(0,464.3)" d="M80,0h680" style="stroke: rgb(211, 211, 211); stroke-opacity: 1; stroke-width: 0.7px;"/><path class="ygrid crisp" transform="translate(0,408.27)" d="M80,0h680" style="stroke: rgb(211, 211, 211); stroke-opacity: 1; stroke-width: 0.7px;"/><path class="ygrid crisp" transform="translate(0,352.24)" d="M80,0h680" style="stroke: rgb(211, 211, 211); stroke-opacity: 1; stroke-width: 0.7px;"/><path class="ygrid crisp" transform="translate(0,296.21000000000004)" d="M80,0h680" style="stroke: rgb(211, 211, 211); stroke-opacity: 1; stroke-width: 0.7px;"/><path class="ygrid crisp" transform="translate(0,184.15)" d="M80,0h680" style="stroke: rgb(211, 211, 211); stroke-opacity: 1; stroke-width: 0.7px;"/><path class="ygrid crisp" transform="translate(0,128.12)" d="M80,0h680" style="stroke: rgb(211, 211, 211); stroke-opacity: 1; stroke-width: 0.7px;"/></g><g class="x2"/></g><g class="zerolinelayer"><path class="yzl zl crisp" transform="translate(0,240.18)" d="M80,0h680" style="stroke: rgb(255, 255, 255); stroke-opacity: 1; stroke-width: 2px;"/></g><g class="layer-between"><g class="shapelayer"/><g class="imagelayer"/></g><path class="xlines-below"/><path class="ylines-below"/><g class="overlines-below"><path class="x2y-x"/><path class="x2y-y"/></g><g class="xaxislayer-below"/><g class="yaxislayer-below"/><g class="overaxes-below"><g class="x2y-x"/><g class="x2y-y"/></g><g class="overplot"><g class="xy" transform="translate(80,90)" clip-path="url(#clip457e82xyplot)"><g class="scatterlayer mlayer"><g class="trace scatter tracec02fa3" style="stroke-miterlimit: 2; opacity: 1;"><g class="fills"/><g class="errorbars"/><g class="lines"><path class="js-line" d="M0,418L24.88,417.34L33.2,416.83L58.07,414.41L66.39,413.32L91.27,409.16L99.54,407.49L124.46,401.63L132.74,399.39L157.66,391.88L165.94,389.1L199.13,376.77L207.41,373.41L240.61,360.05L248.93,358.59L277.64,357.85L282.42,357.58L311.18,355.11L315.97,354.56L344.72,350.37L349.51,349.53L378.22,343.62L383.05,342.5L392.62,340.13L402.19,343.13L421.33,351.03L430.94,355.31L478.84,375.99L488.41,379.77L517.17,390.17L526.74,393.29L555.49,401.61L565.06,404.01L593.78,410.11L603.39,411.76L632.1,415.56L641.72,416.44L670.43,417.9L680,418" style="vector-effect: none; fill: none; stroke: rgb(0, 0, 128); stroke-opacity: 1; stroke-width: 2.5px; opacity: 1;"/></g><g class="points"/><g class="text"/></g><g class="trace scatter trace30e0c8" style="stroke-miterlimit: 2; opacity: 1;"><g class="fills"/><g class="errorbars"/><g class="lines"><path class="js-line" d="M0,287.21L24.88,286.41L33.2,285.79L58.07,282.87L66.39,281.55L91.27,276.57L99.54,274.58L107.87,273.74L116.14,278.52L207.41,331.47L215.73,335.88L232.33,344.08L240.61,347.43L248.93,348.99L253.71,348.97L282.42,347.95L287.21,347.63L315.97,344.9L320.75,344.33L373.43,338.03L378.22,338.05L387.83,339.07L392.62,340.13L421.33,332.07L430.94,329.07L459.66,319.16L469.27,315.57L507.55,299.87L517.17,295.64L565.06,273.32L574.64,273.07L603.39,279.68L612.96,281.43L641.72,285.32L651.29,286.14L680,287.21" style="vector-effect: none; fill: none; stroke: rgb(0, 0, 128); stroke-opacity: 1; stroke-width: 2.5px; opacity: 1;"/></g><g class="points"/><g class="text"/></g><g class="trace scatter trace2ffac2" style="stroke-miterlimit: 2; opacity: 1;"><g class="fills"/><g class="errorbars"/><g class="lines"><path class="js-line" d="M0,234.8L16.6,235.99L24.88,237.46L41.47,241.96L49.79,244.9L66.39,251.9L74.67,255.86L107.87,272.42L116.14,270.11L141.06,262.28L149.34,262.89L182.53,268.45L190.81,269.53L215.73,271.93L224.01,272.44L263.28,274.08L268.07,274.83L282.42,278.21L287.21,279.67L301.61,284.9L306.39,286.87L330.32,297.82L335.15,300.13L363.86,313.55L368.65,315.46L378.22,318.54L383.05,319.56L392.62,320.38L402.19,319.71L421.33,315.74L430.94,313.05L459.66,303.51L469.27,299.99L517.17,280.93L526.74,276.97L545.88,269.09L555.49,267.59L565.06,270.43L574.64,268.75L612.96,251.31L622.53,247.43L641.72,240.82L651.29,238.28L670.43,235.2L680,234.8" style="vector-effect: none; fill: none; stroke: rgb(0, 0, 128); stroke-opacity: 1; stroke-width: 2.5px; opacity: 1;"/></g><g class="points"/><g class="text"/></g><g class="trace scatter tracebb01fa" style="stroke-miterlimit: 2; opacity: 1;"><g class="fills"/><g class="errorbars"/><g class="lines"><path class="js-line" d="M0,234.8L16.6,235.45L24.88,236.24L49.79,240.17L58.07,241.87L99.54,251.68L107.87,253.7L141.06,261.22L149.34,259.39L182.53,246.84L190.81,243.56L215.73,234.18L224.01,231.54L240.61,228.01L248.93,227.51L272.85,226.76L277.64,226.43L301.61,223.89L306.39,223.2L330.32,218.88L335.15,217.84L359.08,211.77L363.86,210.39L387.83,202.64L392.62,200.92L421.33,212.5L430.94,216.72L497.98,246.56L507.55,250.48L536.31,261.29L545.88,264.54L555.49,265.21L565.06,261.42L593.78,250.89L603.39,247.78L622.53,242.36L632.1,240.12L651.29,236.75L660.86,235.67L680,234.8" style="vector-effect: none; fill: none; stroke: rgb(0, 0, 128); stroke-opacity: 1; stroke-width: 2.5px; opacity: 1;"/></g><g class="points"/><g class="text"/></g><g class="trace scatter trace16eff8" style="stroke-miterlimit: 2; opacity: 1;"><g class="fills"/><g class="errorbars"/><g class="lines"><path class="js-line" d="M0,162.03L24.88,161.13L33.2,160.44L58.07,157.17L66.39,155.68L91.27,150.03L99.54,147.75L124.46,139.74L132.74,136.68L141.06,133.43L149.34,135.63L190.81,160.99L199.13,165.66L215.73,174.01L224.01,177.44L232.33,180.13L240.61,181.88L258.5,182.51L263.28,182.54L301.61,183.5L306.39,183.76L330.32,185.86L335.15,186.48L354.29,189.8L359.08,190.87L378.22,196.07L383.05,197.6L392.62,200.92L402.19,197.34L430.94,185.36L440.51,180.98L469.27,166.8L478.84,161.76L517.17,140.45L526.74,134.93L536.31,132.28L545.88,136.11L574.64,146.01L584.21,148.79L603.39,153.56L612.96,155.54L632.1,158.72L641.72,159.91L660.86,161.5L670.43,161.89L680,162.03" style="vector-effect: none; fill: none; stroke: rgb(0, 0, 128); stroke-opacity: 1; stroke-width: 2.5px; opacity: 1;"/></g><g class="points"/><g class="text"/></g><g class="trace scatter trace8641d7" style="stroke-miterlimit: 2; opacity: 1;"><g class="fills"/><g class="errorbars"/><g class="lines"><path class="js-line" d="M0,147.97L24.88,147.07L33.2,146.38L58.07,143.09L66.39,141.59L91.27,135.95L99.54,133.7L124.46,126.3L132.74,126.34L141.06,130.61L149.34,129.99L182.53,115.38L190.81,114.52L253.71,115.68L258.5,115.24L268.07,113.51L272.85,112.23L287.21,106.92L292.04,104.69L306.39,96.93L311.18,94.03L335.15,78.12L339.94,76.41L359.08,80.76L363.86,81.59L378.22,83.35L383.05,83.67L402.19,83.69L411.76,83.11L430.94,81.66L440.51,81.54L469.27,98.55L478.84,104.08L507.55,119.28L517.17,123.87L526.74,128.2L536.31,129.39L545.88,123.85L555.49,125.68L584.21,134.72L593.78,137.23L622.53,143.19L632.1,144.65L651.29,146.77L660.86,147.44L680,147.97" style="vector-effect: none; fill: none; stroke: rgb(0, 0, 128); stroke-opacity: 1; stroke-width: 2.5px; opacity: 1;"/></g><g class="points"/><g class="text"/></g><g class="trace scatter traced50b01" style="stroke-miterlimit: 2; opacity: 1;"><g class="fills"/><g class="errorbars"/><g class="lines"><path class="js-line" d="M0,116.48L24.88,115.62L33.2,114.95L58.07,111.84L66.39,110.49L82.99,107.99L91.27,107.55L99.54,107.67L107.87,109.68L124.46,118.97L132.74,120.97L141.06,118.62L149.34,115.37L157.66,111.81L165.94,112.19L182.53,112.29L190.81,109.24L207.41,100.2L215.73,95.29L248.93,74.43L253.71,74.41L277.64,73.45L282.42,73.09L306.39,70.56L311.18,69.9L315.97,70.18L320.75,71.37L335.15,75.15L339.94,74.83L354.29,65.46L359.08,62.79L363.86,60.58L368.65,59.67L392.62,55.85L402.19,58.45L411.76,63.15L421.33,68.8L440.51,80.89L450.09,82.52L459.66,84.87L469.27,88.36L497.98,101.51L507.55,105.98L536.31,118.43L545.88,122.17L555.49,118.36L565.06,112.94L574.64,107.65L584.21,103.79L612.96,110.23L622.53,111.88L641.72,114.44L651.29,115.33L670.43,116.36L680,116.48" style="vector-effect: none; fill: none; stroke: rgb(0, 0, 128); stroke-opacity: 1; stroke-width: 2.5px; opacity: 1;"/></g><g class="points"/><g class="text"/></g><g class="trace scatter traceedf612" style="stroke-miterlimit: 2; opacity: 1;"><g class="fills"/><g class="errorbars"/><g class="lines"><path class="js-line" d="M0,106.87L41.47,105.95L49.79,105.74L82.99,104.76L91.27,103.47L99.54,105.05L107.87,108.05L157.66,111.64L165.94,108.03L190.81,95.53L199.13,91.01L232.33,71.56L240.61,68.22L248.93,73.43L253.71,73.4L277.64,72.37L282.42,71.98L311.18,69.07L315.97,69.21L349.51,63.34L354.29,62.42L368.65,58.89L373.43,57.6L383.05,55.92L387.83,55.61L392.62,55.85L402.19,54.88L421.33,54.22L430.94,54.51L440.51,56.02L450.09,58.92L488.41,72.59L497.98,76.08L536.31,89.28L545.88,92.4L574.64,101.19L584.21,102.54L593.78,100.26L603.39,101.78L632.1,105.02L641.72,105.71L670.43,106.8L680,106.87" style="vector-effect: none; fill: none; stroke: rgb(0, 0, 128); stroke-opacity: 1; stroke-width: 2.5px; opacity: 1;"/></g><g class="points"/><g class="text"/></g><g class="trace scatter traced02feb" style="stroke-miterlimit: 2; opacity: 1;"><g class="fills"/><g class="errorbars"/><g class="lines"><path class="js-line" d="M0,106.87L16.6,105.58L24.88,103.99L41.47,99.05L49.79,95.78L66.39,92.28L74.67,92.54L91.27,100.59L99.54,101.52L116.14,96.58L124.46,93.75L149.34,84L157.66,80.35L182.53,68.22L190.81,63.8L207.41,54.42L215.73,50.74L232.33,62.43L240.61,66.65L248.93,63.42L253.71,63.44L277.64,64.29L282.42,64.66L301.61,67.15L306.39,68.06L311.18,68.5L315.97,67.74L344.72,62.08L349.51,60.95L363.86,56.75L368.65,54.98L378.22,51.89L383.05,50.99L392.62,50.5L402.19,50.55L421.33,51.85L430.94,53.6L450.09,56.21L459.66,57.2L478.84,59.65L488.41,63.08L517.17,77.26L526.74,81.38L545.88,88.53L555.49,91.53L574.64,96.47L584.21,98.5L593.78,97.66L603.39,93.06L612.96,92.08L622.53,94L641.72,100.52L651.29,103.16L670.43,106.44L680,106.87" style="vector-effect: none; fill: none; stroke: rgb(0, 0, 128); stroke-opacity: 1; stroke-width: 2.5px; opacity: 1;"/></g><g class="points"/><g class="text"/></g><g class="trace scatter trace8b5b31" style="stroke-miterlimit: 2; opacity: 1;"><g class="fills"/><g class="errorbars"/><g class="lines"><path class="js-line" d="M0,98.37L24.88,97.5L33.2,96.82L49.79,94.9L58.07,92.04L66.39,88.5L74.67,90.3L91.27,86.65L99.54,84.46L124.46,76.8L132.74,73.9L157.66,64.24L165.94,60.75L199.13,46.29L207.41,44.9L215.73,49.42L224.01,45.37L240.61,54.73L248.93,57.96L272.85,57.12L277.64,56.75L301.61,53.9L306.39,53.13L330.32,48.27L335.15,47.1L359.08,40.26L363.86,38.69L387.83,29.87L392.62,27.91L411.76,38.64L421.33,44.35L430.94,49.5L440.51,53.61L450.09,56.02L459.66,57.1L478.84,57.82L488.41,61.07L526.74,67.38L536.31,70.68L565.06,80.2L574.64,83.02L603.39,90.17L612.96,90.47L622.53,93.74L632.1,95.15L651.29,97.21L660.86,97.85L680,98.37" style="vector-effect: none; fill: none; stroke: rgb(0, 0, 128); stroke-opacity: 1; stroke-width: 2.5px; opacity: 1;"/></g><g class="points"/><g class="text"/></g><g class="trace scatter tracec50805" style="stroke-miterlimit: 2; opacity: 1;"><g class="fills"/><g class="errorbars"/><g class="lines"><path class="js-line" d="M0,73.47L16.6,74.48L24.88,75.73L41.47,79.63L49.79,82.22L66.39,87.86L74.67,83.29L91.27,73.14L99.54,67.64L124.46,49.88L132.74,43.67L157.66,24.7L165.94,23.73L174.21,25.94L182.53,29.5L207.41,43.39L215.73,42.61L224.01,44.34L232.33,39.07L248.93,28.3L253.71,28.28L282.42,28.16L287.21,28.94L306.39,31.64L311.18,32.05L325.54,32.34L330.32,32.13L349.51,29.97L354.29,29.19L378.22,25.47L383.05,25.51L387.83,26.3L392.62,27.91L402.19,23.8L411.76,22L421.33,24.6L430.94,29.38L469.27,52.34L478.84,56.78L488.41,57.14L497.98,58.59L517.17,64.03L526.74,67.32L565.06,75.36L574.64,77.85L593.78,83.68L603.39,86.99L612.96,88.81L622.53,84.97L641.72,78.74L651.29,76.47L670.43,73.8L680,73.47" style="vector-effect: none; fill: none; stroke: rgb(0, 0, 128); stroke-opacity: 1; stroke-width: 2.5px; opacity: 1;"/></g><g class="points"/><g class="text"/></g></g></g><g class="x2y" transform="translate(80,90)" clip-path="url(#clip457e82x2yplot)"><g class="scatterlayer mlayer"><g class="trace scatter tracea2a68e" style="stroke-miterlimit: 2; opacity: 1;"><g class="fills"/><g class="errorbars"/><g class="lines"/><g class="points"><path class="point" transform="translate(0,283.57)" d="M7.5,0A7.5,7.5 0 1,1 0,-7.5A7.5,7.5 0 0,1 7.5,0Z" style="opacity: 1; stroke-width: 2px; fill: rgb(0, 255, 255); fill-opacity: 1; stroke: rgb(0, 0, 128); stroke-opacity: 1;"/><path class="point" transform="translate(22.4,282.98)" d="M7.5,0A7.5,7.5 0 1,1 0,-7.5A7.5,7.5 0 0,1 7.5,0Z" style="opacity: 1; stroke-width: 2px; fill: rgb(0, 255, 255); fill-opacity: 1; stroke: rgb(0, 0, 128); stroke-opacity: 1;"/><path class="point" transform="translate(44.8,281.2)" d="M7.5,0A7.5,7.5 0 1,1 0,-7.5A7.5,7.5 0 0,1 7.5,0Z" style="opacity: 1; stroke-width: 2px; fill: rgb(0, 255, 255); fill-opacity: 1; stroke: rgb(0, 0, 128); stroke-opacity: 1;"/><path class="point" transform="translate(67.2,278.25)" d="M7.5,0A7.5,7.5 0 1,1 0,-7.5A7.5,7.5 0 0,1 7.5,0Z" style="opacity: 1; stroke-width: 2px; fill: rgb(0, 255, 255); fill-opacity: 1; stroke: rgb(0, 0, 128); stroke-opacity: 1;"/><path class="point" transform="translate(89.6,274.16)" d="M7.5,0A7.5,7.5 0 1,1 0,-7.5A7.5,7.5 0 0,1 7.5,0Z" style="opacity: 1; stroke-width: 2px; fill: rgb(0, 255, 255); fill-opacity: 1; stroke: rgb(0, 0, 128); stroke-opacity: 1;"/><path class="point" transform="translate(112,268.97)" d="M7.5,0A7.5,7.5 0 1,1 0,-7.5A7.5,7.5 0 0,1 7.5,0Z" style="opacity: 1; stroke-width: 2px; fill: rgb(0, 255, 255); fill-opacity: 1; stroke: rgb(0, 0, 128); stroke-opacity: 1;"/><path class="point" transform="translate(134.4,262.76)" d="M7.5,0A7.5,7.5 0 1,1 0,-7.5A7.5,7.5 0 0,1 7.5,0Z" style="opacity: 1; stroke-width: 2px; fill: rgb(0, 255, 255); fill-opacity: 1; stroke: rgb(0, 0, 128); stroke-opacity: 1;"/><path class="point" transform="translate(156.81,255.59)" d="M7.5,0A7.5,7.5 0 1,1 0,-7.5A7.5,7.5 0 0,1 7.5,0Z" style="opacity: 1; stroke-width: 2px; fill: rgb(0, 255, 255); fill-opacity: 1; stroke: rgb(0, 0, 128); stroke-opacity: 1;"/><path class="point" transform="translate(179.21,247.61)" d="M7.5,0A7.5,7.5 0 1,1 0,-7.5A7.5,7.5 0 0,1 7.5,0Z" style="opacity: 1; stroke-width: 2px; fill: rgb(0, 255, 255); fill-opacity: 1; stroke: rgb(0, 0, 128); stroke-opacity: 1;"/><path class="point" transform="translate(201.61,239.2)" d="M7.5,0A7.5,7.5 0 1,1 0,-7.5A7.5,7.5 0 0,1 7.5,0Z" style="opacity: 1; stroke-width: 2px; fill: rgb(0, 255, 255); fill-opacity: 1; stroke: rgb(0, 0, 128); stroke-opacity: 1;"/><path class="point" transform="translate(224.01,231.54)" d="M7.5,0A7.5,7.5 0 1,1 0,-7.5A7.5,7.5 0 0,1 7.5,0Z" style="opacity: 1; stroke-width: 2px; fill: rgb(0, 255, 255); fill-opacity: 1; stroke: rgb(0, 0, 128); stroke-opacity: 1;"/><path class="point" transform="translate(246.41,227.56)" d="M7.5,0A7.5,7.5 0 1,1 0,-7.5A7.5,7.5 0 0,1 7.5,0Z" style="opacity: 1; stroke-width: 2px; fill: rgb(0, 255, 255); fill-opacity: 1; stroke: rgb(0, 0, 128); stroke-opacity: 1;"/><path class="point" transform="translate(268.72,227)" d="M7.5,0A7.5,7.5 0 1,1 0,-7.5A7.5,7.5 0 0,1 7.5,0Z" style="opacity: 1; stroke-width: 2px; fill: rgb(0, 255, 255); fill-opacity: 1; stroke: rgb(0, 0, 128); stroke-opacity: 1;"/><path class="point" transform="translate(291.02,225.2)" d="M7.5,0A7.5,7.5 0 1,1 0,-7.5A7.5,7.5 0 0,1 7.5,0Z" style="opacity: 1; stroke-width: 2px; fill: rgb(0, 255, 255); fill-opacity: 1; stroke: rgb(0, 0, 128); stroke-opacity: 1;"/><path class="point" transform="translate(313.31,222.1)" d="M7.5,0A7.5,7.5 0 1,1 0,-7.5A7.5,7.5 0 0,1 7.5,0Z" style="opacity: 1; stroke-width: 2px; fill: rgb(0, 255, 255); fill-opacity: 1; stroke: rgb(0, 0, 128); stroke-opacity: 1;"/><path class="point" transform="translate(335.61,217.73)" d="M7.5,0A7.5,7.5 0 1,1 0,-7.5A7.5,7.5 0 0,1 7.5,0Z" style="opacity: 1; stroke-width: 2px; fill: rgb(0, 255, 255); fill-opacity: 1; stroke: rgb(0, 0, 128); stroke-opacity: 1;"/><path class="point" transform="translate(357.91,212.1)" d="M7.5,0A7.5,7.5 0 1,1 0,-7.5A7.5,7.5 0 0,1 7.5,0Z" style="opacity: 1; stroke-width: 2px; fill: rgb(0, 255, 255); fill-opacity: 1; stroke: rgb(0, 0, 128); stroke-opacity: 1;"/><path class="point" transform="translate(380.21,205.24)" d="M7.5,0A7.5,7.5 0 1,1 0,-7.5A7.5,7.5 0 0,1 7.5,0Z" style="opacity: 1; stroke-width: 2px; fill: rgb(0, 255, 255); fill-opacity: 1; stroke: rgb(0, 0, 128); stroke-opacity: 1;"/><path class="point" transform="translate(402.59,204.71)" d="M7.5,0A7.5,7.5 0 1,1 0,-7.5A7.5,7.5 0 0,1 7.5,0Z" style="opacity: 1; stroke-width: 2px; fill: rgb(0, 255, 255); fill-opacity: 1; stroke: rgb(0, 0, 128); stroke-opacity: 1;"/><path class="point" transform="translate(425.09,214.13)" d="M7.5,0A7.5,7.5 0 1,1 0,-7.5A7.5,7.5 0 0,1 7.5,0Z" style="opacity: 1; stroke-width: 2px; fill: rgb(0, 255, 255); fill-opacity: 1; stroke: rgb(0, 0, 128); stroke-opacity: 1;"/><path class="point" transform="translate(447.58,224.24)" d="M7.5,0A7.5,7.5 0 1,1 0,-7.5A7.5,7.5 0 0,1 7.5,0Z" style="opacity: 1; stroke-width: 2px; fill: rgb(0, 255, 255); fill-opacity: 1; stroke: rgb(0, 0, 128); stroke-opacity: 1;"/><path class="point" transform="translate(470.07,234.42)" d="M7.5,0A7.5,7.5 0 1,1 0,-7.5A7.5,7.5 0 0,1 7.5,0Z" style="opacity: 1; stroke-width: 2px; fill: rgb(0, 255, 255); fill-opacity: 1; stroke: rgb(0, 0, 128); stroke-opacity: 1;"/><path class="point" transform="translate(492.56,243.95)" d="M7.5,0A7.5,7.5 0 1,1 0,-7.5A7.5,7.5 0 0,1 7.5,0Z" style="opacity: 1; stroke-width: 2px; fill: rgb(0, 255, 255); fill-opacity: 1; stroke: rgb(0, 0, 128); stroke-opacity: 1;"/><path class="point" transform="translate(515.06,252.56)" d="M7.5,0A7.5,7.5 0 1,1 0,-7.5A7.5,7.5 0 0,1 7.5,0Z" style="opacity: 1; stroke-width: 2px; fill: rgb(0, 255, 255); fill-opacity: 1; stroke: rgb(0, 0, 128); stroke-opacity: 1;"/><path class="point" transform="translate(537.55,260.21)" d="M7.5,0A7.5,7.5 0 1,1 0,-7.5A7.5,7.5 0 0,1 7.5,0Z" style="opacity: 1; stroke-width: 2px; fill: rgb(0, 255, 255); fill-opacity: 1; stroke: rgb(0, 0, 128); stroke-opacity: 1;"/><path class="point" transform="translate(560.04,266.86)" d="M7.5,0A7.5,7.5 0 1,1 0,-7.5A7.5,7.5 0 0,1 7.5,0Z" style="opacity: 1; stroke-width: 2px; fill: rgb(0, 255, 255); fill-opacity: 1; stroke: rgb(0, 0, 128); stroke-opacity: 1;"/><path class="point" transform="translate(582.53,272.45)" d="M7.5,0A7.5,7.5 0 1,1 0,-7.5A7.5,7.5 0 0,1 7.5,0Z" style="opacity: 1; stroke-width: 2px; fill: rgb(0, 255, 255); fill-opacity: 1; stroke: rgb(0, 0, 128); stroke-opacity: 1;"/><path class="point" transform="translate(605.03,276.95)" d="M7.5,0A7.5,7.5 0 1,1 0,-7.5A7.5,7.5 0 0,1 7.5,0Z" style="opacity: 1; stroke-width: 2px; fill: rgb(0, 255, 255); fill-opacity: 1; stroke: rgb(0, 0, 128); stroke-opacity: 1;"/><path class="point" transform="translate(627.52,280.31)" d="M7.5,0A7.5,7.5 0 1,1 0,-7.5A7.5,7.5 0 0,1 7.5,0Z" style="opacity: 1; stroke-width: 2px; fill: rgb(0, 255, 255); fill-opacity: 1; stroke: rgb(0, 0, 128); stroke-opacity: 1;"/><path class="point" transform="translate(650.01,282.51)" d="M7.5,0A7.5,7.5 0 1,1 0,-7.5A7.5,7.5 0 0,1 7.5,0Z" style="opacity: 1; stroke-width: 2px; fill: rgb(0, 255, 255); fill-opacity: 1; stroke: rgb(0, 0, 128); stroke-opacity: 1;"/><path class="point" transform="translate(672.5,283.51)" d="M7.5,0A7.5,7.5 0 1,1 0,-7.5A7.5,7.5 0 0,1 7.5,0Z" style="opacity: 1; stroke-width: 2px; fill: rgb(0, 255, 255); fill-opacity: 1; stroke: rgb(0, 0, 128); stroke-opacity: 1;"/></g><g class="text"/></g><g class="trace scatter trace901508" style="stroke-miterlimit: 2; opacity: 1;"><g class="fills"/><g class="errorbars"/><g class="lines"/><g class="points"><path class="point" transform="translate(0,73.47)" d="M7.5,0A7.5,7.5 0 1,1 0,-7.5A7.5,7.5 0 0,1 7.5,0Z" style="opacity: 1; stroke-width: 2px; fill: rgb(0, 255, 255); fill-opacity: 1; stroke: rgb(0, 0, 128); stroke-opacity: 1;"/><path class="point" transform="translate(22.4,75.3)" d="M7.5,0A7.5,7.5 0 1,1 0,-7.5A7.5,7.5 0 0,1 7.5,0Z" style="opacity: 1; stroke-width: 2px; fill: rgb(0, 255, 255); fill-opacity: 1; stroke: rgb(0, 0, 128); stroke-opacity: 1;"/><path class="point" transform="translate(44.8,80.62)" d="M7.5,0A7.5,7.5 0 1,1 0,-7.5A7.5,7.5 0 0,1 7.5,0Z" style="opacity: 1; stroke-width: 2px; fill: rgb(0, 255, 255); fill-opacity: 1; stroke: rgb(0, 0, 128); stroke-opacity: 1;"/><path class="point" transform="translate(67.2,88.94)" d="M7.5,0A7.5,7.5 0 1,1 0,-7.5A7.5,7.5 0 0,1 7.5,0Z" style="opacity: 1; stroke-width: 2px; fill: rgb(0, 255, 255); fill-opacity: 1; stroke: rgb(0, 0, 128); stroke-opacity: 1;"/><path class="point" transform="translate(89.6,99.65)" d="M7.5,0A7.5,7.5 0 1,1 0,-7.5A7.5,7.5 0 0,1 7.5,0Z" style="opacity: 1; stroke-width: 2px; fill: rgb(0, 255, 255); fill-opacity: 1; stroke: rgb(0, 0, 128); stroke-opacity: 1;"/><path class="point" transform="translate(112,112.1)" d="M7.5,0A7.5,7.5 0 1,1 0,-7.5A7.5,7.5 0 0,1 7.5,0Z" style="opacity: 1; stroke-width: 2px; fill: rgb(0, 255, 255); fill-opacity: 1; stroke: rgb(0, 0, 128); stroke-opacity: 1;"/><path class="point" transform="translate(134.4,125.71)" d="M7.5,0A7.5,7.5 0 1,1 0,-7.5A7.5,7.5 0 0,1 7.5,0Z" style="opacity: 1; stroke-width: 2px; fill: rgb(0, 255, 255); fill-opacity: 1; stroke: rgb(0, 0, 128); stroke-opacity: 1;"/><path class="point" transform="translate(156.81,139.89)" d="M7.5,0A7.5,7.5 0 1,1 0,-7.5A7.5,7.5 0 0,1 7.5,0Z" style="opacity: 1; stroke-width: 2px; fill: rgb(0, 255, 255); fill-opacity: 1; stroke: rgb(0, 0, 128); stroke-opacity: 1;"/><path class="point" transform="translate(179.21,154)" d="M7.5,0A7.5,7.5 0 1,1 0,-7.5A7.5,7.5 0 0,1 7.5,0Z" style="opacity: 1; stroke-width: 2px; fill: rgb(0, 255, 255); fill-opacity: 1; stroke: rgb(0, 0, 128); stroke-opacity: 1;"/><path class="point" transform="translate(201.61,167.01)" d="M7.5,0A7.5,7.5 0 1,1 0,-7.5A7.5,7.5 0 0,1 7.5,0Z" style="opacity: 1; stroke-width: 2px; fill: rgb(0, 255, 255); fill-opacity: 1; stroke: rgb(0, 0, 128); stroke-opacity: 1;"/><path class="point" transform="translate(224.01,177.44)" d="M7.5,0A7.5,7.5 0 1,1 0,-7.5A7.5,7.5 0 0,1 7.5,0Z" style="opacity: 1; stroke-width: 2px; fill: rgb(0, 255, 255); fill-opacity: 1; stroke: rgb(0, 0, 128); stroke-opacity: 1;"/><path class="point" transform="translate(246.41,182.43)" d="M7.5,0A7.5,7.5 0 1,1 0,-7.5A7.5,7.5 0 0,1 7.5,0Z" style="opacity: 1; stroke-width: 2px; fill: rgb(0, 255, 255); fill-opacity: 1; stroke: rgb(0, 0, 128); stroke-opacity: 1;"/><path class="point" transform="translate(268.72,182.59)" d="M7.5,0A7.5,7.5 0 1,1 0,-7.5A7.5,7.5 0 0,1 7.5,0Z" style="opacity: 1; stroke-width: 2px; fill: rgb(0, 255, 255); fill-opacity: 1; stroke: rgb(0, 0, 128); stroke-opacity: 1;"/><path class="point" transform="translate(291.02,183.06)" d="M7.5,0A7.5,7.5 0 1,1 0,-7.5A7.5,7.5 0 0,1 7.5,0Z" style="opacity: 1; stroke-width: 2px; fill: rgb(0, 255, 255); fill-opacity: 1; stroke: rgb(0, 0, 128); stroke-opacity: 1;"/><path class="point" transform="translate(313.31,184.21)" d="M7.5,0A7.5,7.5 0 1,1 0,-7.5A7.5,7.5 0 0,1 7.5,0Z" style="opacity: 1; stroke-width: 2px; fill: rgb(0, 255, 255); fill-opacity: 1; stroke: rgb(0, 0, 128); stroke-opacity: 1;"/><path class="point" transform="translate(335.61,186.54)" d="M7.5,0A7.5,7.5 0 1,1 0,-7.5A7.5,7.5 0 0,1 7.5,0Z" style="opacity: 1; stroke-width: 2px; fill: rgb(0, 255, 255); fill-opacity: 1; stroke: rgb(0, 0, 128); stroke-opacity: 1;"/><path class="point" transform="translate(357.91,190.6)" d="M7.5,0A7.5,7.5 0 1,1 0,-7.5A7.5,7.5 0 0,1 7.5,0Z" style="opacity: 1; stroke-width: 2px; fill: rgb(0, 255, 255); fill-opacity: 1; stroke: rgb(0, 0, 128); stroke-opacity: 1;"/><path class="point" transform="translate(380.21,196.69)" d="M7.5,0A7.5,7.5 0 1,1 0,-7.5A7.5,7.5 0 0,1 7.5,0Z" style="opacity: 1; stroke-width: 2px; fill: rgb(0, 255, 255); fill-opacity: 1; stroke: rgb(0, 0, 128); stroke-opacity: 1;"/><path class="point" transform="translate(402.59,197.18)" d="M7.5,0A7.5,7.5 0 1,1 0,-7.5A7.5,7.5 0 0,1 7.5,0Z" style="opacity: 1; stroke-width: 2px; fill: rgb(0, 255, 255); fill-opacity: 1; stroke: rgb(0, 0, 128); stroke-opacity: 1;"/><path class="point" transform="translate(425.09,187.94)" d="M7.5,0A7.5,7.5 0 1,1 0,-7.5A7.5,7.5 0 0,1 7.5,0Z" style="opacity: 1; stroke-width: 2px; fill: rgb(0, 255, 255); fill-opacity: 1; stroke: rgb(0, 0, 128); stroke-opacity: 1;"/><path class="point" transform="translate(447.58,177.63)" d="M7.5,0A7.5,7.5 0 1,1 0,-7.5A7.5,7.5 0 0,1 7.5,0Z" style="opacity: 1; stroke-width: 2px; fill: rgb(0, 255, 255); fill-opacity: 1; stroke: rgb(0, 0, 128); stroke-opacity: 1;"/><path class="point" transform="translate(470.07,166.37)" d="M7.5,0A7.5,7.5 0 1,1 0,-7.5A7.5,7.5 0 0,1 7.5,0Z" style="opacity: 1; stroke-width: 2px; fill: rgb(0, 255, 255); fill-opacity: 1; stroke: rgb(0, 0, 128); stroke-opacity: 1;"/><path class="point" transform="translate(492.56,154.31)" d="M7.5,0A7.5,7.5 0 1,1 0,-7.5A7.5,7.5 0 0,1 7.5,0Z" style="opacity: 1; stroke-width: 2px; fill: rgb(0, 255, 255); fill-opacity: 1; stroke: rgb(0, 0, 128); stroke-opacity: 1;"/><path class="point" transform="translate(515.06,141.65)" d="M7.5,0A7.5,7.5 0 1,1 0,-7.5A7.5,7.5 0 0,1 7.5,0Z" style="opacity: 1; stroke-width: 2px; fill: rgb(0, 255, 255); fill-opacity: 1; stroke: rgb(0, 0, 128); stroke-opacity: 1;"/><path class="point" transform="translate(537.55,128.67)" d="M7.5,0A7.5,7.5 0 1,1 0,-7.5A7.5,7.5 0 0,1 7.5,0Z" style="opacity: 1; stroke-width: 2px; fill: rgb(0, 255, 255); fill-opacity: 1; stroke: rgb(0, 0, 128); stroke-opacity: 1;"/><path class="point" transform="translate(560.04,115.75)" d="M7.5,0A7.5,7.5 0 1,1 0,-7.5A7.5,7.5 0 0,1 7.5,0Z" style="opacity: 1; stroke-width: 2px; fill: rgb(0, 255, 255); fill-opacity: 1; stroke: rgb(0, 0, 128); stroke-opacity: 1;"/><path class="point" transform="translate(582.53,103.41)" d="M7.5,0A7.5,7.5 0 1,1 0,-7.5A7.5,7.5 0 0,1 7.5,0Z" style="opacity: 1; stroke-width: 2px; fill: rgb(0, 255, 255); fill-opacity: 1; stroke: rgb(0, 0, 128); stroke-opacity: 1;"/><path class="point" transform="translate(605.03,92.29)" d="M7.5,0A7.5,7.5 0 1,1 0,-7.5A7.5,7.5 0 0,1 7.5,0Z" style="opacity: 1; stroke-width: 2px; fill: rgb(0, 255, 255); fill-opacity: 1; stroke: rgb(0, 0, 128); stroke-opacity: 1;"/><path class="point" transform="translate(627.52,83.14)" d="M7.5,0A7.5,7.5 0 1,1 0,-7.5A7.5,7.5 0 0,1 7.5,0Z" style="opacity: 1; stroke-width: 2px; fill: rgb(0, 255, 255); fill-opacity: 1; stroke: rgb(0, 0, 128); stroke-opacity: 1;"/><path class="point" transform="translate(650.01,76.73)" d="M7.5,0A7.5,7.5 0 1,1 0,-7.5A7.5,7.5 0 0,1 7.5,0Z" style="opacity: 1; stroke-width: 2px; fill: rgb(0, 255, 255); fill-opacity: 1; stroke: rgb(0, 0, 128); stroke-opacity: 1;"/><path class="point" transform="translate(672.5,73.67)" d="M7.5,0A7.5,7.5 0 1,1 0,-7.5A7.5,7.5 0 0,1 7.5,0Z" style="opacity: 1; stroke-width: 2px; fill: rgb(0, 255, 255); fill-opacity: 1; stroke: rgb(0, 0, 128); stroke-opacity: 1;"/></g><g class="text"/></g></g></g></g><path class="xlines-above crisp" d="M79,530.5H761M79,89.5H761" style="fill: none; stroke-width: 1px; stroke: rgb(0, 0, 0); stroke-opacity: 1;"/><path class="ylines-above crisp" d="M79.5,90V530M760.5,90V530" style="fill: none; stroke-width: 1px; stroke: rgb(0, 0, 0); stroke-opacity: 1;"/><g class="overlines-above"><path class="x2y-x crisp" d="M0,0" style="fill: none;"/><path class="x2y-y crisp" d="M0,0" style="fill: none;"/></g><g class="xaxislayer-above"><g class="xtick"><text text-anchor="middle" x="0" y="552.6" transform="translate(80,0)" style="font-family: 'Times New Roman'; font-size: 18px; fill: rgb(0, 0, 0); fill-opacity: 1; white-space: pre; opacity: 1;"><tspan style="font-weight:bold">Γ</tspan></text></g><g class="xtick"><text text-anchor="middle" x="0" y="552.6" style="font-family: 'Times New Roman'; font-size: 18px; fill: rgb(0, 0, 0); fill-opacity: 1; white-space: pre; opacity: 1;" transform="translate(328.93,0)"><tspan style="font-weight:bold">M</tspan></text></g><g class="xtick"><text text-anchor="middle" x="0" y="552.6" style="font-family: 'Times New Roman'; font-size: 18px; fill: rgb(0, 0, 0); fill-opacity: 1; white-space: pre; opacity: 1;" transform="translate(472.49,0)"><tspan style="font-weight:bold">K</tspan></text></g><g class="xtick"><text text-anchor="middle" x="0" y="552.6" style="font-family: 'Times New Roman'; font-size: 18px; fill: rgb(0, 0, 0); fill-opacity: 1; white-space: pre; opacity: 1;" transform="translate(759.61,0)"><tspan style="font-weight:bold">Γ</tspan></text></g></g><g class="yaxislayer-above"><g class="ytick"><text text-anchor="end" x="75.4" y="6.3" transform="translate(0,520.3299999999999)" style="font-family: 'Times New Roman'; font-size: 18px; fill: rgb(0, 0, 0); fill-opacity: 1; white-space: pre; opacity: 1;">−25</text></g><g class="ytick"><text text-anchor="end" x="75.4" y="6.3" style="font-family: 'Times New Roman'; font-size: 18px; fill: rgb(0, 0, 0); fill-opacity: 1; white-space: pre; opacity: 1;" transform="translate(0,464.3)">−20</text></g><g class="ytick"><text text-anchor="end" x="75.4" y="6.3" style="font-family: 'Times New Roman'; font-size: 18px; fill: rgb(0, 0, 0); fill-opacity: 1; white-space: pre; opacity: 1;" transform="translate(0,408.27)">−15</text></g><g class="ytick"><text text-anchor="end" x="75.4" y="6.3" style="font-family: 'Times New Roman'; font-size: 18px; fill: rgb(0, 0, 0); fill-opacity: 1; white-space: pre; opacity: 1;" transform="translate(0,352.24)">−10</text></g><g class="ytick"><text text-anchor="end" x="75.4" y="6.3" style="font-family: 'Times New Roman'; font-size: 18px; fill: rgb(0, 0, 0); fill-opacity: 1; white-space: pre; opacity: 1;" transform="translate(0,296.21000000000004)">−5</text></g><g class="ytick"><text text-anchor="end" x="75.4" y="6.3" style="font-family: 'Times New Roman'; font-size: 18px; fill: rgb(0, 0, 0); fill-opacity: 1; white-space: pre; opacity: 1;" transform="translate(0,240.18)">0</text></g><g class="ytick"><text text-anchor="end" x="75.4" y="6.3" style="font-family: 'Times New Roman'; font-size: 18px; fill: rgb(0, 0, 0); fill-opacity: 1; white-space: pre; opacity: 1;" transform="translate(0,184.15)">5</text></g><g class="ytick"><text text-anchor="end" x="75.4" y="6.3" style="font-family: 'Times New Roman'; font-size: 18px; fill: rgb(0, 0, 0); fill-opacity: 1; white-space: pre; opacity: 1;" transform="translate(0,128.12)">10</text></g></g><g class="overaxes-above"><g class="x2y-x"/><g class="x2y-y"/></g></g><g class="subplot x2y"/></g><g class="polarlayer"/><g class="smithlayer"/><g class="ternarylayer"/><g class="geolayer"/><g class="funnelarealayer"/><g class="pielayer"/><g class="iciclelayer"/><g class="treemaplayer"/><g class="sunburstlayer"/><g class="glimages"/><defs id="topdefs-457e82"><g class="clips"/><clipPath id="legend457e82"><rect width="244" height="34" x="1" y="1"/></clipPath></defs><g class="layer-above"><g class="imagelayer"/><g class="shapelayer"><g class="shape-group" data-index="0" clip-path="url(#clip457e82x)"><path data-index="0" fill-rule="evenodd" d="M328.93,530L328.93,90" style="opacity: 0.8; stroke: rgb(64, 64, 64); stroke-opacity: 1; fill: rgb(0, 0, 0); fill-opacity: 0; stroke-dasharray: 9px, 9px; stroke-width: 1.8px;"/></g><g class="shape-group" data-index="1" clip-path="url(#clip457e82x)"><path data-index="1" fill-rule="evenodd" d="M472.49,530L472.49,90" style="opacity: 0.8; stroke: rgb(64, 64, 64); stroke-opacity: 1; fill: rgb(0, 0, 0); fill-opacity: 0; stroke-dasharray: 9px, 9px; stroke-width: 1.8px;"/></g><g class="shape-group" data-index="2" clip-path="url(#clip457e82y)"><path data-index="2" fill-rule="evenodd" d="M80,291.11L760,291.11" style="opacity: 1; stroke: rgb(255, 0, 0); stroke-opacity: 1; fill: rgb(0, 0, 0); fill-opacity: 0; stroke-dasharray: 3px, 3px; stroke-width: 2px;"/></g></g></g><g class="infolayer"><g class="legend" pointer-events="all" transform="translate(297,58.400000000000006)"><rect class="bg" shape-rendering="crispEdges" width="245" height="35" x="0.5" y="0.5" style="stroke: rgb(0, 0, 0); stroke-opacity: 1; fill: rgb(255, 255, 255); fill-opacity: 1; stroke-width: 1px;"/><g class="scrollbox" transform="" clip-path="url(#legend457e82)"><text class="legendtitletext" text-anchor="start" x="3" y="24.400000000000002" style="font-family: 'Times New Roman'; font-size: 18px; fill: rgb(42, 63, 95); fill-opacity: 1; white-space: pre;"><tspan style="font-weight:bold">Method</tspan></text><g class="groups" transform=""><g class="traces" transform="translate(70,17.9)" style="opacity: 1;"><text class="legendtext" text-anchor="start" x="40" y="6.24" style="font-family: 'Times New Roman'; font-size: 16px; fill: rgb(42, 63, 95); fill-opacity: 1; white-space: pre;">DFT</text><g class="layers" style="opacity: 1;"><g class="legendfill"/><g class="legendlines"><path class="js-line" d="M5,0h30" style="fill: none; stroke: rgb(0, 0, 128); stroke-opacity: 1; stroke-width: 2.5px;"/></g><g class="legendsymbols"><g class="legendpoints"/></g></g><rect class="legendtoggle" x="0" y="-11.9" width="72.953125" height="23.8" style="fill: rgb(0, 0, 0); fill-opacity: 0;"/></g></g><g class="groups" transform="translate(75.453125,0)"><g class="traces" transform="translate(70,17.9)" style="opacity: 1;"><text class="legendtext" text-anchor="start" x="40" y="6.24" style="font-family: 'Times New Roman'; font-size: 16px; fill: rgb(42, 63, 95); fill-opacity: 1; white-space: pre;">Wannier</text><g class="layers" style="opacity: 1;"><g class="legendfill"/><g class="legendlines"/><g class="legendsymbols"><g class="legendpoints"><path class="scatterpts" transform="translate(20,0)" d="M7.5,0A7.5,7.5 0 1,1 0,-7.5A7.5,7.5 0 0,1 7.5,0Z" style="opacity: 1; stroke-width: 2px; fill: rgb(0, 255, 255); fill-opacity: 1; stroke: rgb(0, 0, 128); stroke-opacity: 1;"/></g></g></g><rect class="legendtoggle" x="0" y="-11.9" width="96.96875" height="23.8" style="fill: rgb(0, 0, 0); fill-opacity: 0;"/></g></g></g><rect class="scrollbar" rx="20" ry="3" width="0" height="0" x="0" y="0" style="fill: rgb(128, 139, 164); fill-opacity: 1;"/></g><g class="g-gtitle"><text class="gtitle" x="400" y="30" text-anchor="middle" dy="0.7em" style="opacity: 1; font-family: 'Times New Roman'; font-size: 24px; fill: rgb(0, 0, 0); fill-opacity: 1; white-space: pre;"><tspan style="font-weight:bold">Band Structure Comparison: DFT vs Wannier</tspan></text></g><g class="g-xtitle"><text class="xtitle" x="420" y="585.109375" text-anchor="middle" style="opacity: 1; font-family: 'Times New Roman'; font-size: 20px; fill: rgb(0, 0, 0); fill-opacity: 1; white-space: pre;">Crystal Momentum (k)</text></g><g class="g-x2title"/><g class="g-ytitle"><text class="ytitle" transform="rotate(-90,25.734375,310)" x="25.734375" y="310" text-anchor="middle" style="opacity: 1; font-family: 'Times New Roman'; font-size: 20px; fill: rgb(0, 0, 0); fill-opacity: 1; white-space: pre;">Energy (eV)</text></g><g class="annotation" data-index="0" style="opacity: 1;"><g class="annotation-text-g" transform="rotate(0,713,277.61)"><g class="cursor-pointer" transform="translate(666,264)"><rect class="bg" x="0.5" y="0.5" width="93" height="26" style="stroke-width: 1px; stroke: rgb(0, 0, 0); stroke-opacity: 0; fill: rgb(255, 255, 255); fill-opacity: 1;"/><text class="annotation-text" text-anchor="middle" x="46.546875" y="19" style="font-family: 'Times New Roman'; font-size: 16px; fill: rgb(0, 0, 0); fill-opacity: 1; white-space: pre;"><tspan style="font-weight:bold">Fermi Level</tspan></text></g></g></g></g></svg>